<svg xmlns="http://www.w3.org/2000/svg" viewBox="-2324 581 42.651 42.966">
  <defs>
    <style>
      .cls-1 {
        fill: red;
      }
    </style>
  </defs>
  <g id="Bharti_Airtel_Limited" transform="translate(-2410.673 536.613)">
    <path id="Path_2308" data-name="Path 2308" class="cls-1" d="M279.191-774.577a2.358,2.358,0,0,1-.43.053,14.344,14.344,0,0,0-3.31.83c-.065.03-.247.106-.412.171a15.893,15.893,0,0,0-1.743.836,1.1,1.1,0,0,1-.306.141c-.088.024-.159.065-.159.088s-.047.059-.1.083a1.547,1.547,0,0,0-.283.153,2.53,2.53,0,0,1-.312.177,1.706,1.706,0,0,0-.33.206,1.025,1.025,0,0,1-.23.147,21.07,21.07,0,0,0-2.568,1.861,10.885,10.885,0,0,0-1.243,1.325.587.587,0,0,1-.124.177,10.656,10.656,0,0,0-.86,1.349c-.065.147-.194.406-.277.583a4.012,4.012,0,0,0-.377,1.979,2.112,2.112,0,0,0,.7,1.625,2.706,2.706,0,0,0,1.967.8,4.653,4.653,0,0,0,1.649-.188c.194-.053.453-.118.577-.153a1.447,1.447,0,0,0,.324-.112c.135-.071.9-.412.93-.412a23.14,23.14,0,0,0,2.5-1.525c.76-.506,1.425-.948,1.484-.978s.412-.247.8-.477.854-.495,1.048-.595.471-.247.618-.324.424-.2.618-.271.436-.177.53-.218.241-.106.324-.141a4.977,4.977,0,0,1,1.254-.224,2.081,2.081,0,0,1,2.255,1.425,2.947,2.947,0,0,1,.112,1.148,4.41,4.41,0,0,1-.306,1.884c-.047.112-.112.271-.147.353a13.528,13.528,0,0,1-1.6,2.638,22.723,22.723,0,0,1-3.015,3.121c-.324.271-.683.565-.8.66a10.077,10.077,0,0,1-.854.624c-.13.082-.342.224-.471.318a15.781,15.781,0,0,1-1.884,1l-.483.212a.89.89,0,0,1-.3.082,1.259,1.259,0,0,0-.3.065.563.563,0,0,1-.771-.518c0-.483.23-.789,1.678-2.226,1.566-1.555,1.737-1.784,1.737-2.373a1.427,1.427,0,0,0-.936-1.349,1.468,1.468,0,0,0-.883-.165,2.256,2.256,0,0,0-1.331.336c-.094.059-.241.135-.324.177a1.009,1.009,0,0,0-.177.106c-.018.018-.135.106-.265.206a7.866,7.866,0,0,0-1.172,1.2,8.2,8.2,0,0,0-.748,1.242,6.011,6.011,0,0,0-.583,2.273,2.513,2.513,0,0,0,1.678,2.568,7.692,7.692,0,0,0,1.985.006,11.209,11.209,0,0,0,1.6-.495.245.245,0,0,1,.141-.053,18.045,18.045,0,0,0,2.5-1.278c.135-.088.289-.188.347-.224s.33-.2.618-.377.53-.342.548-.359a5.121,5.121,0,0,1,.442-.324l.589-.406c.1-.071.377-.283.618-.477a23.523,23.523,0,0,0,3.675-3.533c.13-.159.247-.306.265-.324.047-.035.448-.612.724-1.048a7.634,7.634,0,0,0,.418-.718c.112-.212.265-.5.342-.648s.241-.53.371-.854.247-.642.271-.707a13.552,13.552,0,0,0,.53-2.267,8.722,8.722,0,0,0-.212-3.092,5.053,5.053,0,0,0-.342-.854,6.448,6.448,0,0,0-2.091-2.532,3.085,3.085,0,0,1-.33-.259,8.276,8.276,0,0,0-1.92-.854,9.68,9.68,0,0,0-1.113-.247A12.7,12.7,0,0,0,279.191-774.577Z" transform="translate(-168.885 819)"/>
    <path id="Path_2309" data-name="Path 2309" class="cls-1" d="M261.472-301.866a1.643,1.643,0,0,0-.777.63c-.188.289-.194.312-.194.913v.624l.224.306a1.467,1.467,0,0,0,.83.624,1.643,1.643,0,0,0,1.5-.224,1.752,1.752,0,0,0,.465-2.179,1.367,1.367,0,0,0-.607-.612A1.92,1.92,0,0,0,261.472-301.866Z" transform="translate(-163.591 374.19)"/>
    <path id="Path_2310" data-name="Path 2310" class="cls-1" d="M739.878-279.825c-.018.012-.289.065-.612.118s-.854.135-1.178.194l-.589.1v5.418c0,5.883-.012,5.636.336,6.372a2.145,2.145,0,0,0,.536.7,3.125,3.125,0,0,0,2.45.754c1.06,0,1.019.041,1-.936l-.018-.707-.453-.041c-.807-.071-1.2-.395-1.284-1.066-.023-.2-.041-2.721-.035-5.594C740.032-279.489,740.02-279.966,739.878-279.825Z" transform="translate(-612.5 353.368)"/>
    <path id="Path_2311" data-name="Path 2311" class="cls-1" d="M471.675-278.912a7.68,7.68,0,0,0-1.8.342c-.041.047-.047,1.926-.029,5.518.029,5.017.041,5.471.135,5.712a2.545,2.545,0,0,0,.642,1.072,3.481,3.481,0,0,0,2.7.872c.718,0,.819-.012.866-.106a5.719,5.719,0,0,0,.041-1.372c-.035-.147-.059-.153-.5-.188a1.22,1.22,0,0,1-1.119-.63l-.147-.265-.018-3.05a23.283,23.283,0,0,1,.053-3.139c.053-.065.253-.082.883-.082.972,0,.889.094.866-1.031l-.018-.766-.824-.029a5.717,5.717,0,0,1-.9-.077,4.612,4.612,0,0,1-.077-1.46V-279l-.13.006C472.235-278.988,471.952-278.953,471.675-278.912Z" transform="translate(-360.604 352.573)"/>
    <path id="Path_2312" data-name="Path 2312" class="cls-1" d="M90.667-232.669a9.427,9.427,0,0,0-1.826.436,2.3,2.3,0,0,1-.265.094,4.874,4.874,0,0,0-1.119.559,1.924,1.924,0,0,0,.112.306,7.735,7.735,0,0,0,.565,1.16.535.535,0,0,0,.135-.053,6.376,6.376,0,0,1,.954-.389c.177-.053.389-.124.471-.153a4.684,4.684,0,0,1,1.614-.112c.8.13,1.1.5,1.142,1.449.024.524.024.536-.112.571a10.614,10.614,0,0,1-1.2.041,4.962,4.962,0,0,0-2.738.524,3.19,3.19,0,0,0-1.631,2.008,4,4,0,0,0,.035,1.884,3.712,3.712,0,0,0,3.545,2.632,6.523,6.523,0,0,0,4.293-1.237l.383-.312.018-3.115c.018-3.61.012-3.734-.424-4.617a3.351,3.351,0,0,0-1.254-1.213c-.188-.088-.395-.177-.459-.206A5.973,5.973,0,0,0,90.667-232.669Zm1.737,5.677a11.28,11.28,0,0,1,.059,1.6c0,1.672.024,1.566-.412,1.8a1.988,1.988,0,0,1-.919.112H90.42l-.294-.2a1.759,1.759,0,0,1-.412-.383,2.19,2.19,0,0,1,.053-2.332,2.419,2.419,0,0,1,.748-.53.27.27,0,0,0,.159-.053c.082-.088.353-.112,1.042-.1C92.21-227.081,92.363-227.063,92.4-226.992Z" transform="translate(0 308.986)"/>
    <path id="Path_2313" data-name="Path 2313" class="cls-1" d="M351.3-231.791a6.535,6.535,0,0,0-3.05,1.637l-.247.224v8.7c0,.094.088.1,1.284.088l1.278-.018.018-4.1.012-4.1.224-.177a1.972,1.972,0,0,1,.736-.395,4.03,4.03,0,0,1,1.519-.147,2.182,2.182,0,0,0,.495.018,1.3,1.3,0,0,0,.241-.448c.088-.236.23-.542.3-.683.194-.371.177-.465-.082-.524-.124-.029-.347-.082-.506-.118A7.262,7.262,0,0,0,351.3-231.791Z" transform="translate(-245.938 308.249)"/>
    <path id="Path_2314" data-name="Path 2314" class="cls-1" d="M566.786-230.831a1.253,1.253,0,0,0-.406.112.246.246,0,0,1-.141.053,2.018,2.018,0,0,0-.465.188,4.461,4.461,0,0,0-1.443,1.343,6.021,6.021,0,0,0-.607,1.266,2.23,2.23,0,0,1-.088.294c-.023.065-.094.318-.153.559a11.463,11.463,0,0,0-.006,3.268,5.882,5.882,0,0,0,.518,1.384.06.06,0,0,1,.053.065,4.371,4.371,0,0,0,1.2,1.513,4.235,4.235,0,0,0,1.072.554,7.113,7.113,0,0,0,1.655.283,7.4,7.4,0,0,0,2.844-.677,1.985,1.985,0,0,1,.359-.177,1.854,1.854,0,0,0,.612-.377,5.131,5.131,0,0,0-.695-1.419.559.559,0,0,0-.23.118.527.527,0,0,1-.23.118.433.433,0,0,0-.194.082,5.621,5.621,0,0,1-.677.271,3.1,3.1,0,0,1-1.384.2c-.73,0-.854-.012-1.089-.124a2.829,2.829,0,0,1-1.3-2.732,3.827,3.827,0,0,1,.018-.536c.006-.012,1.313-.029,2.9-.047l2.885-.029-.018-.589a8.334,8.334,0,0,0-.607-3.062c-.024-.035-.106-.183-.183-.33A3.1,3.1,0,0,0,569.2-230.7,5.891,5.891,0,0,0,566.786-230.831Zm1.266,1.873c.247.065.766.483.766.612a.781.781,0,0,0,.088.23,2.519,2.519,0,0,1,.147,1.248c-.059.077-.289.088-1.478.088h-1.407l-.035-.147a2.443,2.443,0,0,1,.365-1.419,1.5,1.5,0,0,1,.83-.624,1.475,1.475,0,0,1,.412-.077C567.775-229.035,567.917-228.994,568.052-228.959Z" transform="translate(-448.618 307.301)"/>
    <path id="Path_2315" data-name="Path 2315" class="cls-1" d="M268.051-228.677a4.611,4.611,0,0,1-.589.112c-.224.029-.636.088-.913.13a3.12,3.12,0,0,0-.548.106c-.053.047-.059,10.052-.012,10.141a7.407,7.407,0,0,0,1.237.053c1.2,0,1.207,0,1.237-.135.018-.071.024-2.45.018-5.282-.018-5.106-.018-5.153-.135-5.165A.976.976,0,0,0,268.051-228.677Z" transform="translate(-168.727 305.253)"/>
  </g>
</svg>
