<svg width="40" height="40" viewBox="0 0 40 40" fill="none" xmlns="http://www.w3.org/2000/svg">
<rect width="40" height="40" rx="20" fill="#E7EAF0"/>
<path d="M12.9316 16.887H27.1513V27.2318H12.9316V16.887Z" fill="#95A5A5"/>
<path d="M25.8613 17.4905H28.2751V26.5136H25.8613V17.4905Z" fill="#D1D4D1"/>
<path d="M14.1384 26.3527H11.7246V17.8062H14.1384V26.3527Z" fill="#D1D4D1"/>
<path d="M25.1738 16.7144H28.9669V17.5765C28.9669 17.9573 28.6582 18.266 28.2773 18.266H25.8635C25.4825 18.266 25.1738 17.9573 25.1738 17.5765V16.7144Z" fill="#BDC3C7"/>
<path d="M25.8635 25.8523H28.2773C28.6582 25.8523 28.9669 26.1611 28.9669 26.542V27.4041H25.1738V26.542C25.1738 26.1611 25.4825 25.8523 25.8635 25.8523Z" fill="#BDC3C7"/>
<path d="M14.1385 18.266H11.7247C11.3438 18.266 11.0352 17.9573 11.0352 17.5765V16.7144H14.8282V17.5765C14.8282 17.9573 14.5195 18.266 14.1385 18.266Z" fill="#BDC3C7"/>
<path d="M14.8282 27.4041H11.0352V26.542C11.0352 26.1611 11.3438 25.8523 11.7247 25.8523H14.1385C14.5195 25.8523 14.8282 26.1611 14.8282 26.542V27.4041Z" fill="#BDC3C7"/>
<path d="M10.6895 15.0593H29.6549V16.542C29.6549 16.7325 29.5005 16.8869 29.3101 16.8869H11.0343C10.8439 16.8869 10.6895 16.7325 10.6895 16.542V15.0593Z" fill="#285680"/>
<path d="M11.0343 27.2317H29.3101C29.5005 27.2317 29.6549 27.3861 29.6549 27.5765V29.3006H10.6895V27.5765C10.6895 27.3861 10.8439 27.2317 11.0343 27.2317Z" fill="#285680"/>
<path d="M29.6552 15.5077H10.3448C10.1544 15.5077 10 15.3533 10 15.1628V13.348C9.99985 13.1972 10.0977 13.0639 10.2414 13.0187L19.6935 10.0856C19.8932 10.0235 20.1068 10.0235 20.3065 10.0856L29.7586 13.0187C29.9023 13.0639 30.0002 13.1972 30 13.348V15.1628C30 15.3533 29.8456 15.5077 29.6552 15.5077Z" fill="#4482C3"/>
<path d="M11.3789 14.1282V14.1099L19.8962 11.4661C19.9627 11.4455 20.0338 11.4455 20.1004 11.4661L28.6204 14.1099V14.1282H11.3789Z" fill="#285680"/>
<path d="M23.7931 22.0593C23.7931 24.1542 22.0949 25.8523 20.0001 25.8523C17.9052 25.8523 16.207 24.1542 16.207 22.0593C16.207 19.9644 17.9052 18.2661 20.0001 18.2661C22.0949 18.2661 23.7931 19.9644 23.7931 22.0593Z" fill="#7ED09E"/>
<path d="M21.7155 22.0443H21.189V21.496H21.7155C21.7554 21.494 21.793 21.4768 21.8206 21.4479C21.8481 21.419 21.8635 21.3806 21.8635 21.3406C21.8635 21.3007 21.8481 21.2622 21.8206 21.2333C21.793 21.2044 21.7554 21.1872 21.7155 21.1852H21.189V20.4261C21.1961 20.341 21.175 20.256 21.1289 20.1841C21.1102 20.1609 21.0862 20.1426 21.059 20.1306C21.0317 20.1187 21.002 20.1134 20.9723 20.1154C20.9434 20.1137 20.9146 20.1191 20.8883 20.1311C20.862 20.1431 20.839 20.1613 20.8213 20.1841C20.7757 20.2563 20.7549 20.3414 20.7619 20.4265V21.1865H19.7723L19.3519 20.4969C19.3153 20.4353 19.282 20.3777 19.2491 20.3223C19.2245 20.2794 19.1958 20.239 19.1634 20.2017C19.1398 20.1753 19.1113 20.1537 19.0795 20.1381C19.0435 20.1218 19.0042 20.1141 18.9647 20.1154C18.9065 20.1154 18.8499 20.1339 18.8029 20.1682C18.755 20.2007 18.7181 20.2469 18.6971 20.3009C18.6752 20.3764 18.6657 20.4549 18.6688 20.5334V21.1863H18.148C18.1081 21.1883 18.0705 21.2055 18.0429 21.2344C18.0154 21.2633 18 21.3018 18 21.3417C18 21.3817 18.0154 21.4201 18.0429 21.449C18.0705 21.4779 18.1081 21.4951 18.148 21.4971H18.6688V22.0454H18.148C18.1081 22.0474 18.0705 22.0646 18.0429 22.0935C18.0154 22.1224 18 22.1609 18 22.2008C18 22.2408 18.0154 22.2792 18.0429 22.3081C18.0705 22.337 18.1081 22.3542 18.148 22.3562H18.6688V23.2228C18.6622 23.3073 18.6841 23.3916 18.7309 23.4622C18.7494 23.4859 18.7733 23.5047 18.8006 23.5171C18.8279 23.5296 18.8578 23.5352 18.8878 23.5337C18.9175 23.5348 18.9472 23.5289 18.9743 23.5165C19.0014 23.504 19.0251 23.4854 19.0437 23.462C19.0915 23.3919 19.1138 23.3074 19.1069 23.2228V22.3543H20.0026L20.4871 23.1586C20.5208 23.2118 20.5557 23.2655 20.5902 23.3182C20.6195 23.363 20.6535 23.4045 20.6917 23.4419C20.7212 23.4715 20.7564 23.4948 20.7951 23.5105C20.8364 23.5257 20.8802 23.5332 20.9242 23.5324C21.0552 23.5324 21.1894 23.4889 21.1894 23.1668V22.3543H21.7155C21.7554 22.3524 21.793 22.3352 21.8206 22.3063C21.8481 22.2773 21.8635 22.2389 21.8635 22.199C21.8635 22.159 21.8481 22.1206 21.8206 22.0917C21.793 22.0628 21.7554 22.0455 21.7155 22.0436V22.0443ZM20.7621 21.496V22.0443H20.2959L19.9618 21.496H20.7621ZM19.1069 20.8674L19.2992 21.1865H19.1069V20.8674ZM19.1069 22.0443V21.496H19.4855L19.8145 22.0443H19.1069ZM20.7617 22.8088L20.4846 22.3543H20.7617V22.8088Z" fill="white"/>
<path d="M10.3448 28.6111H29.6552C29.8456 28.6111 30 28.7655 30 28.9559V29.6456C30 29.8361 29.8456 29.9905 29.6552 29.9905H10.3448C10.1544 29.9905 10 29.8361 10 29.6456V28.9559C10 28.7655 10.1544 28.6111 10.3448 28.6111Z" fill="#4482C3"/>
</svg>
