<svg width="101" height="25" viewBox="0 0 101 25" fill="none" xmlns="http://www.w3.org/2000/svg">
<path d="M31.9434 6.43408C35.1859 6.43408 36.7202 8.26895 36.7202 10.831C36.6845 11.5652 36.5515 12.2921 36.3246 12.9943H27.1919C27.1426 13.2263 27.1175 13.4625 27.1172 13.6992C27.0995 14.1431 27.1813 14.5854 27.357 14.9966C27.5326 15.4078 27.7981 15.7783 28.1356 16.0832C28.4732 16.3882 28.8749 16.6207 29.314 16.765C29.7532 16.9093 30.2194 16.9621 30.6816 16.9199C32.1242 16.8464 33.5113 16.3637 34.666 15.5332L35.3585 17.3439C33.965 18.3073 32.3012 18.8479 30.5827 18.8959C26.9204 18.8959 24.6682 16.7799 24.6682 13.8171C24.6353 12.8744 24.7977 11.9347 25.1462 11.0524C25.4946 10.17 26.0223 9.36237 26.6986 8.67603C27.3749 7.98968 28.1866 7.43822 29.0868 7.05343C29.9869 6.66864 30.9578 6.45816 31.9434 6.43408ZM34.2653 11.2782C34.2996 11.0686 34.3161 10.8568 34.3147 10.6446C34.3504 10.3283 34.3129 10.0083 34.205 9.70739C34.0971 9.40643 33.9213 9.13182 33.6902 8.90305C33.459 8.67427 33.1781 8.49691 32.8674 8.38349C32.5567 8.27007 32.2237 8.22339 31.892 8.24674C30.9374 8.27552 30.0144 8.58095 29.2452 9.12261C28.4761 9.66428 27.8969 10.4166 27.5846 11.2801L34.2653 11.2782Z" fill="#3E3F42"/>
<path d="M37.8325 21.5762C38.393 21.5397 38.9334 21.3617 39.3986 21.0602C39.8637 20.7587 40.2369 20.3446 40.4802 19.8601L41.3958 18.4492L38.5249 6.71753H41.0244L42.7062 14.7582C42.8294 15.3695 42.908 16.1691 42.908 16.1691H42.9333C42.9333 16.1691 43.3037 15.3965 43.651 14.8055L48.3532 6.71753H51.0505L42.268 20.8007C41.8643 21.5842 41.2509 22.2514 40.4902 22.7344C39.7296 23.2175 38.8489 23.4993 37.9375 23.5512C37.0172 23.5506 36.119 23.281 35.3633 22.7786L36.4737 21.1561C36.8664 21.4345 37.3438 21.582 37.8325 21.5762Z" fill="#3E3F42"/>
<path d="M58.6216 6.43408C62.1113 6.43408 64.5604 8.54998 64.5604 11.6307C64.4987 13.5599 63.6616 15.392 62.2233 16.7455C60.7849 18.099 58.8562 18.8696 56.8389 18.8968C53.3249 18.8968 50.875 16.7568 50.875 13.6548C50.9405 11.7268 51.7837 9.89786 53.228 8.55166C54.6723 7.20545 56.6052 6.44655 58.6216 6.43408ZM56.8601 16.9219C58.2599 16.8638 59.5836 16.2957 60.5596 15.334C61.5356 14.3722 62.0901 13.0898 62.1094 11.7495C62.1289 11.3041 62.0511 10.8597 61.8811 10.4447C61.711 10.0296 61.4525 9.65302 61.1219 9.3389C60.7912 9.02479 60.3958 8.78005 59.9608 8.62027C59.5258 8.46049 59.0608 8.3892 58.5954 8.41093C57.193 8.45533 55.8625 9.01534 54.8808 9.97446C53.8991 10.9336 53.3419 12.2179 53.325 13.5602C53.3037 14.0088 53.3807 14.4567 53.5511 14.8752C53.7215 15.2936 53.9814 15.6733 54.3144 15.9899C54.6473 16.3065 55.0459 16.553 55.4843 16.7135C55.9227 16.874 56.3913 16.945 56.8601 16.9219Z" fill="#3E3F42"/>
<path d="M67.0117 6.71655H69.4112L70.3036 15.1107C70.3489 15.5325 70.3653 15.9567 70.3529 16.3806H70.4024C70.4024 16.3806 70.7003 15.6978 70.9971 15.1107L75.4012 6.73972H77.6281L78.5942 15.1107C78.6437 15.6041 78.6689 16.3806 78.6689 16.3806H78.7184C78.8848 15.948 79.0748 15.5241 79.2878 15.1107L83.6435 6.71655H86.2177L79.7572 18.6134H77.1084L76.0686 10.9252C75.9949 10.3139 75.9949 9.65527 75.9949 9.65527H75.9454C75.9454 9.65527 75.6485 10.3139 75.3265 10.9252L71.196 18.6134H68.5964L67.0117 6.71655Z" fill="#3E3F42"/>
<path d="M94.0622 6.43408C97.5519 6.43408 100.002 8.54998 100.002 11.6307C99.94 13.5598 99.1026 15.3918 97.6643 16.7452C96.226 18.0987 94.2976 18.8694 92.2803 18.8968C88.7663 18.8968 86.3164 16.7568 86.3164 13.6548C86.3814 11.7268 87.2244 9.89773 88.6685 8.55145C90.1127 7.20517 92.0458 6.44631 94.0622 6.43408ZM92.3047 16.9219C93.7045 16.8638 95.0279 16.2957 96.004 15.334C96.98 14.3722 97.5346 13.0898 97.5539 11.7495C97.5734 11.3041 97.4954 10.8597 97.3254 10.4447C97.1554 10.0296 96.897 9.65302 96.5664 9.3389C96.2357 9.02479 95.8403 8.78005 95.4053 8.62027C94.9703 8.46049 94.5054 8.3892 94.04 8.41093C92.6374 8.45508 91.3066 9.01499 90.3247 9.97414C89.3428 10.9333 88.7853 12.2178 88.7684 13.5602C88.7472 14.0089 88.8243 14.4568 88.9948 14.8753C89.1654 15.2937 89.4256 15.6734 89.7586 15.99C90.0916 16.3066 90.49 16.553 90.9285 16.7135C91.367 16.874 91.8359 16.945 92.3047 16.9219Z" fill="#3E3F42"/>
<path d="M12.1106 1.27337C12.1106 1.27337 12.8354 -1.92995 15.5539 1.8248C15.5539 1.8248 19.9279 6.38112 18.6378 12.1079C18.3547 13.3376 17.9186 14.5304 17.3386 15.6608C16.3657 17.5441 15.0169 19.2272 13.3684 20.615L9.83524 23.6802C9.83524 23.6802 6.08405 26.0231 6.88052 23.0602C6.88052 23.0602 6.91992 21.8328 7.54579 21.5885C7.69301 21.5158 7.82209 21.4136 7.92419 21.2888C8.02629 21.1641 8.09899 21.0196 8.13734 20.8655C8.17568 20.7113 8.17874 20.551 8.14633 20.3956C8.11392 20.2402 8.04682 20.0934 7.94957 19.9651C7.94957 19.9651 7.57403 19.2659 8.63902 18.6469C8.7673 18.5819 8.87941 18.4912 8.96773 18.381C9.05604 18.2708 9.11849 18.1436 9.15078 18.0082C9.18307 17.8728 9.18445 17.7324 9.15485 17.5964C9.12524 17.4605 9.06534 17.3323 8.97922 17.2205C8.9284 16.9304 8.98025 16.6323 9.12654 16.3736C9.27282 16.1149 9.5052 15.9102 9.78681 15.7922C9.78681 15.7922 10.5994 15.6782 10.127 14.3658C10.127 14.3658 10.026 13.5333 10.7024 13.3769C10.7024 13.3769 11.6775 13.2397 10.8114 12.1707C10.8114 12.1707 10.2956 11.428 11.3384 10.8747C11.3384 10.8747 12.0117 10.7172 11.2606 9.53809C11.2606 9.53809 10.8164 9.03687 11.7886 8.4613C11.7886 8.4613 12.3216 8.26139 11.7583 7.21261C11.7583 7.21261 11.2637 6.18507 12.0753 5.8519C12.0753 5.8519 12.6809 5.45402 12.2297 4.51436C12.2226 4.51629 11.6513 2.15219 12.1106 1.27337Z" fill="#C9874A"/>
<path d="M10.4167 1.69934C10.4167 1.69934 11.1506 0.0295929 9.61923 0.432302C8.08786 0.835012 5.14829 3.06391 5.14829 3.06391C5.14829 3.06391 0.562274 5.36815 0 12.3436C0 12.3436 0.0898427 19.4427 2.2925 22.4548L4.21049 24.9425C4.21049 24.9425 5.07258 25.3539 5.32091 23.9768L5.97908 21.4099C6.03557 21.257 6.12721 21.1182 6.24723 21.0037C6.36726 20.8892 6.51262 20.802 6.67259 20.7484C6.67259 20.7484 7.27827 20.5697 6.61909 19.5653C6.61909 19.5653 6.43031 18.9965 7.24092 18.6643C7.35394 18.6321 7.4576 18.5752 7.54376 18.4982C7.70501 18.284 7.79511 18.0283 7.80231 17.7644C7.80951 17.5005 7.73349 17.2407 7.58414 17.0187C7.5305 16.5957 7.52306 16.1685 7.56193 15.7439C7.66725 14.6768 8.04888 13.6515 8.67234 12.7608C8.67234 12.7608 11.8017 7.74867 10.5096 5.23488C10.0323 4.10596 9.99933 2.84976 10.4167 1.69934Z" fill="#C9874A"/>
</svg>
