<svg width="76" height="76" viewBox="0 0 76 76" fill="none" xmlns="http://www.w3.org/2000/svg">
<g filter="url(#filter0_d)">
<rect x="3" y="2" width="70" height="70" rx="5" fill="#F6F7F7"/>
<rect x="3.5" y="2.5" width="69" height="69" rx="4.5" stroke="#EAEDF3"/>
</g>
<g clip-path="url(#clip0)">
<path d="M45.2439 37.1857V37.0186V31.0908C45.2471 30.6824 45.2268 30.2742 45.1833 29.8682C45.0885 29.0634 44.6665 28.6795 43.8579 28.6085C43.4714 28.5747 43.0856 28.5303 42.6886 28.4899V28.2088H56.6366V28.4978C56.3897 28.5104 56.1415 28.5144 55.8946 28.5383C55.7074 28.5581 55.5218 28.5905 55.3389 28.6351C55.2633 28.6481 55.1955 28.6897 55.1493 28.7512C55.103 28.8128 55.0818 28.8898 55.09 28.9666C55.1045 29.1582 55.1183 29.3644 55.1993 29.5341C55.3856 29.9199 55.6075 30.2892 55.8248 30.6612C56.2455 31.3785 56.6728 32.0912 57.1061 32.8219C57.1394 32.7942 57.1707 32.764 57.1996 32.7317C57.883 31.8287 58.575 30.9317 59.2407 30.0134C59.3962 29.7833 59.5062 29.5251 59.5646 29.253C59.6614 28.8486 59.4612 28.6079 59.0504 28.5688C58.6922 28.5343 58.3327 28.5091 57.962 28.4786V28.2094H62.941V28.4958C62.7678 28.5064 62.5921 28.5197 62.4143 28.5283C61.5972 28.5668 60.8808 28.8353 60.3383 29.4757C59.6386 30.3009 58.9437 31.1303 58.2537 31.9639C57.9686 32.3074 57.6986 32.6634 57.4129 33.0062C57.3312 33.1043 57.326 33.1699 57.3931 33.2787C58.5539 35.1616 59.7068 37.0444 60.8703 38.9234C61.3312 39.6679 61.8171 40.3965 62.2885 41.1344C62.7152 41.8027 63.3367 42.1064 64.1077 42.1409C64.2072 42.1455 64.3053 42.1621 64.4119 42.174V42.4617H55.4594V42.1747C55.6905 42.1641 55.9202 42.1634 56.1533 42.1389C56.3242 42.1239 56.4927 42.088 56.655 42.0321C56.9112 41.938 57.0409 41.7225 56.9632 41.458C56.8786 41.1407 56.7554 40.8352 56.5964 40.5484C55.8616 39.3039 55.1045 38.0727 54.3578 36.8356C54.3466 36.817 54.3315 36.8005 54.3084 36.7693C54.0839 37.061 53.8607 37.3435 53.6454 37.6312C52.8843 38.6502 52.1211 39.6679 51.3712 40.6962C51.2394 40.8828 51.1397 41.0903 51.0762 41.3101C50.9445 41.7437 51.1625 42.0394 51.603 42.0759C51.998 42.1097 52.399 42.1422 52.8059 42.1767V42.4598H47.4872V42.1833C47.7367 42.172 47.9843 42.1588 48.2325 42.1501C49.1905 42.117 49.9108 41.6483 50.5041 40.9223C51.6725 39.492 52.8469 38.0666 54.0273 36.646C54.1241 36.5293 54.1234 36.4531 54.0464 36.3304C52.7697 34.2791 51.5055 32.2199 50.2196 30.1745C49.9653 29.7614 49.6651 29.3789 49.3248 29.0342C48.854 28.5701 48.2318 28.5005 47.5984 28.5482C47.3825 28.5648 47.1678 28.5973 46.9532 28.6251C46.2506 28.7173 45.8293 29.0952 45.7219 29.8072C45.6646 30.2514 45.6401 30.6993 45.6488 31.1471C45.6431 34.8471 45.6431 38.5472 45.6488 42.2476V42.4757H43.4339C43.3853 42.479 43.3366 42.4695 43.2927 42.4481C43.2489 42.4267 43.2113 42.3942 43.1837 42.3537C40.4943 38.8884 37.8035 35.4243 35.1114 31.9613C34.7827 31.5383 34.4535 31.1153 34.1238 30.6923C34.0915 30.6512 34.058 30.6128 33.9961 30.5458C33.986 30.5937 33.9787 30.6422 33.9743 30.691C33.9743 33.7584 33.9768 36.8259 33.9816 39.8933C33.9743 40.2852 34.0068 40.6769 34.0784 41.0622C34.2101 41.6834 34.5985 41.9904 35.2247 42.0447C35.4407 42.0646 35.6553 42.0925 35.8706 42.111C36.0859 42.1296 36.3012 42.1501 36.529 42.1707V42.4617H30.9423V42.1893C31.2715 42.1528 31.6093 42.123 31.9424 42.0772C32.1847 42.0461 32.4257 42.0063 32.6667 41.9619C32.8163 41.9379 32.9569 41.8741 33.0737 41.777C33.1906 41.6799 33.2794 41.553 33.3311 41.4096C33.429 41.1611 33.4954 40.9011 33.5286 40.6359C33.5615 40.2849 33.5745 39.9322 33.5674 39.5797C33.5701 36.697 33.5701 33.8141 33.5674 30.931C33.5674 30.6068 33.5483 30.2819 33.5365 29.9577C33.5368 29.919 33.5271 29.8808 33.5082 29.847C33.0947 29.2278 32.5996 28.7027 31.8358 28.5588C31.5118 28.4978 31.1721 28.521 30.8396 28.5058H30.7461V28.2001H38.0092C38.0603 28.1966 38.1115 28.2066 38.1577 28.229C38.2038 28.2515 38.2434 28.2856 38.2725 28.3281C40.5353 31.2413 42.8001 34.1529 45.0668 37.063C45.1083 37.1161 45.157 37.1631 45.2024 37.2128L45.2439 37.1857Z" fill="#4D4D4D"/>
<path d="M24.6874 35.7483C25.0331 35.2027 25.4018 34.6312 25.7586 34.0531C26.5876 32.7105 28.3818 32.8225 29.2713 33.4564C30.0667 34.0212 30.4848 34.7823 30.5737 35.747C30.7225 37.3561 30.1846 38.7583 29.2845 40.0485C28.6597 40.9442 27.9176 41.7132 26.9194 42.1886C26.0352 42.6103 25.1088 42.7813 24.1336 42.6143C24.0629 42.6009 23.9929 42.5831 23.9243 42.5612C23.1671 42.3331 22.8616 41.9334 22.8352 41.1358C22.8373 41.0838 22.8274 41.0321 22.8063 40.9846C22.801 40.9999 22.797 41.0158 22.7911 41.0304C22.1985 42.4744 21.6014 43.9164 21.0134 45.3624C20.919 45.5951 20.843 45.8349 20.7862 46.0797C20.7164 46.3781 20.7737 46.6353 21.1813 46.6552C21.5888 46.6751 22.001 46.7023 22.4224 46.7268V47.0026H15V46.7182C15.2798 46.6837 15.563 46.6433 15.8474 46.6154C16.3083 46.5703 16.6882 46.3661 16.9009 45.9524C17.2301 45.3252 17.5461 44.6927 17.8227 44.0397C19.068 41.0735 20.3029 38.1026 21.5276 35.1271C21.6532 34.8066 21.7601 34.479 21.8476 34.1459C21.8944 33.9814 21.8832 33.7932 21.7317 33.6858C21.5803 33.5783 21.4025 33.6367 21.2781 33.7355C21.0147 33.9437 20.7388 34.1552 20.5182 34.4084C19.8945 35.1161 19.3705 35.907 18.9611 36.7587C18.9519 36.7786 18.938 36.7965 18.9189 36.825L18.6556 36.7295C18.7833 36.4856 18.9005 36.2489 19.0289 36.0182C19.4595 35.2451 19.9349 34.5012 20.5624 33.874C21.2267 33.2111 22.026 32.8981 22.9709 33.034C23.8848 33.1666 24.4569 33.7262 24.5998 34.661C24.6558 35.029 24.6617 35.4128 24.6874 35.7483ZM23.1361 41.2412C23.1361 41.3075 23.1315 41.3738 23.1361 41.4401C23.1763 41.9599 23.624 42.2078 24.0625 41.9281C24.2417 41.8069 24.3919 41.6473 24.5024 41.4607C25.6796 39.5267 26.5527 37.4549 27.219 35.2948C27.3566 34.848 27.4824 34.3918 27.4093 33.9118C27.3481 33.514 27.0854 33.3556 26.7292 33.5419C26.5104 33.6614 26.3141 33.8184 26.1491 34.006C25.7076 34.5026 25.3429 35.0634 25.0673 35.6694C24.4538 36.9828 23.9178 38.3315 23.4621 39.7084C23.3007 40.2069 23.148 40.7095 23.1361 41.2412Z" fill="#FE0101"/>
<path d="M17.9687 39.2841L18.2037 39.4167C17.6552 40.2832 17.1502 41.165 16.4516 41.9102C16.0224 42.3703 15.4561 42.5665 14.8458 42.6395C14.4432 42.6985 14.0335 42.6853 13.6356 42.6004C12.833 42.4121 12.2917 41.7544 12.187 40.8951C12.0981 40.1605 12.2707 39.4823 12.5821 38.8339C13.1161 37.7174 13.6691 36.6096 14.2084 35.4957C14.398 35.1046 14.5725 34.7061 14.7463 34.307C14.8029 34.1916 14.8387 34.067 14.8523 33.939C14.8583 33.833 14.8346 33.6738 14.7654 33.6288C14.7128 33.6038 14.6554 33.5909 14.5972 33.5909C14.539 33.5909 14.4816 33.6038 14.429 33.6288C14.2482 33.7262 14.0816 33.8483 13.9338 33.9914C13.3046 34.6021 12.7735 35.3075 12.3595 36.0825C12.3306 36.1355 12.2996 36.1879 12.266 36.2476C12.22 36.233 12.1778 36.2217 12.1344 36.2071C12.0909 36.1925 12.0534 36.174 11.9961 36.1495C12.5182 35.261 13.014 34.364 13.7989 33.6871C14.0916 33.4259 14.4366 33.2311 14.8105 33.1157C15.1844 33.0002 15.5786 32.967 15.9664 33.0181C17.0383 33.1507 17.6974 33.9172 17.7593 35.0363C17.7854 35.5121 17.7114 35.9882 17.542 36.4332C17.0929 37.6339 16.501 38.7636 15.8841 39.8808C15.6313 40.3389 15.4094 40.8143 15.1822 41.2863C15.1295 41.4033 15.0924 41.5268 15.0716 41.6536C15.0176 41.9427 15.2355 42.1668 15.5147 42.0845C15.7129 42.033 15.8976 41.9387 16.0559 41.8081C16.3392 41.5575 16.598 41.2802 16.8289 40.98C17.1693 40.5259 17.4702 40.0412 17.7869 39.5692C17.8515 39.4823 17.9061 39.3855 17.9687 39.2841ZM17.8073 28.002C18.8951 28.002 19.6667 28.7491 19.6667 29.804C19.6667 30.8243 18.845 31.6285 17.8021 31.6292C16.7591 31.6298 15.9638 30.8488 15.9651 29.8086C15.9664 28.7684 16.744 28.002 17.8073 28.002Z" fill="#FE0101"/>
</g>
<defs>
<filter id="filter0_d" x="0" y="0" width="76" height="76" filterUnits="userSpaceOnUse" color-interpolation-filters="sRGB">
<feFlood flood-opacity="0" result="BackgroundImageFix"/>
<feColorMatrix in="SourceAlpha" type="matrix" values="0 0 0 0 0 0 0 0 0 0 0 0 0 0 0 0 0 0 127 0"/>
<feOffset dy="1"/>
<feGaussianBlur stdDeviation="1.5"/>
<feColorMatrix type="matrix" values="0 0 0 0 0 0 0 0 0 0 0 0 0 0 0 0 0 0 0.04 0"/>
<feBlend mode="normal" in2="BackgroundImageFix" result="effect1_dropShadow"/>
<feBlend mode="normal" in="SourceGraphic" in2="effect1_dropShadow" result="shape"/>
</filter>
<clipPath id="clip0">
<rect width="52.4138" height="19" fill="white" transform="translate(12 28)"/>
</clipPath>
</defs>
</svg>
