<svg width="110" height="110" viewBox="0 0 110 110" fill="none" xmlns="http://www.w3.org/2000/svg">
<path d="M55.1001 109.778C85.4146 109.778 109.989 85.2037 109.989 54.8892C109.989 24.5747 85.4146 0 55.1001 0C24.7857 0 0.210938 24.5747 0.210938 54.8892C0.210938 85.2037 24.7857 109.778 55.1001 109.778Z" fill="white"/>
<mask id="mask0" mask-type="alpha" maskUnits="userSpaceOnUse" x="0" y="0" width="109" height="109">
<circle cx="54.4943" cy="54.4943" r="54.4943" fill="#C4C4C4"/>
</mask>
<g mask="url(#mask0)">
<path fill-rule="evenodd" clip-rule="evenodd" d="M55.3397 106.68C26.9854 106.68 3.99969 83.6943 3.99969 55.34C3.99969 26.9857 26.9854 4 55.3397 4C83.694 4 106.68 26.9857 106.68 55.34C106.68 83.6943 83.694 106.68 55.3397 106.68Z" fill="url(#paint0_linear)"/>
<mask id="mask1" mask-type="alpha" maskUnits="userSpaceOnUse" x="4" y="4" width="103" height="103">
<path fill-rule="evenodd" clip-rule="evenodd" d="M55.3397 106.68C26.9854 106.68 3.99969 83.6943 3.99969 55.34C3.99969 26.9857 26.9854 4 55.3397 4C83.694 4 106.68 26.9857 106.68 55.34C106.68 83.6943 83.694 106.68 55.3397 106.68Z" fill="white"/>
</mask>
<g mask="url(#mask1)">
<path fill-rule="evenodd" clip-rule="evenodd" d="M65.9501 63.5544C65.9501 63.5544 65.9501 63.5544 65.9501 67.6616C65.9501 73.1379 73.8222 75.5337 73.8222 75.5337C73.8222 75.5337 64.7522 82.3791 55.3398 82.3791C45.9275 82.3791 36.8574 75.5337 36.8574 75.5337C36.8574 75.5337 44.7914 73.1379 44.7296 67.6616C44.6677 62.1853 44.709 58.9686 44.6677 49.5858C39.7624 43.2276 40.077 38.9602 42.7594 35.9592C51.746 25.9051 76.2181 29.3277 76.2181 29.3277C76.2181 29.3277 78.5017 53.9684 73.3088 61.1585C71.0841 64.2389 65.9501 63.5544 65.9501 63.5544Z" fill="url(#paint1_linear)"/>
<g style="mix-blend-mode:multiply" opacity="0.6">
<path fill-rule="evenodd" clip-rule="evenodd" d="M65.95 63.5544C58.4202 62.6987 53.9707 59.4472 53.9707 59.4472C53.9707 59.4472 57.7356 65.7791 65.95 67.6616V63.5544Z" fill="url(#paint2_linear)"/>
</g>
<path d="M91.2795 85.9071C94.538 92.5323 96.4135 107.812 96.4135 107.812H14.2695C14.2695 107.812 16.146 92.5306 19.4035 85.9071C22.6611 79.2836 41.6848 73.1402 41.6848 73.1402C45.3517 80.6694 65.4753 80.6685 68.988 73.1378C68.988 73.1378 88.0211 79.2819 91.2795 85.9071Z" fill="#0A062E"/>
<path fill-rule="evenodd" clip-rule="evenodd" d="M56.7088 92.3048C56.7088 93.0609 56.0959 93.6739 55.3398 93.6739C54.5837 93.6739 53.9707 93.0609 53.9707 92.3048C53.9707 91.5487 54.5837 90.9357 55.3398 90.9357C56.0959 90.9357 56.7088 91.5487 56.7088 92.3048ZM56.7088 99.1502C56.7088 99.9063 56.0959 100.519 55.3398 100.519C54.5837 100.519 53.9707 99.9063 53.9707 99.1502C53.9707 98.394 54.5837 97.7811 55.3398 97.7811C56.0959 97.7811 56.7088 98.394 56.7088 99.1502Z" fill="white"/>
<path d="M48.8906 39.3249C47.8021 38.3901 46.4797 37.7608 44.6102 38.7321C40.1781 41.0349 43.5325 49.8637 47.4686 49.8637C48.4956 49.8637 49.0062 53.0887 44.4342 55.3412C44.4342 51.7474 38.9579 42.8484 38.4803 34.7461C32.9683 32.6943 34.3373 24.4844 38.122 24.4844C37.5167 16.9574 49.5682 13.0712 54.2347 17.3893C58.9805 11.7022 70.9599 14.6114 71.6833 19.5452C79.9204 15.1478 85.3351 27.7887 77.6221 32.6943C74.4484 34.7129 67.0238 35.4821 56.3066 35.4821C54.6889 35.4821 53.7825 35.8839 54.2347 37.8844C55.1108 41.7608 53.0772 44.2027 48.8906 39.3249Z" fill="url(#paint3_linear)"/>
</g>
</g>
<defs>
<linearGradient id="paint0_linear" x1="3.99969" y1="106.68" x2="3.99969" y2="4" gradientUnits="userSpaceOnUse">
<stop stop-color="#FFC9B3"/>
<stop offset="1" stop-color="#FFD2C2"/>
</linearGradient>
<linearGradient id="paint1_linear" x1="36.8574" y1="28.4585" x2="36.8574" y2="82.3791" gradientUnits="userSpaceOnUse">
<stop stop-color="#E6864E"/>
<stop offset="1" stop-color="#EB965E"/>
</linearGradient>
<linearGradient id="paint2_linear" x1="58.2832" y1="59.5692" x2="56.1893" y2="67.5135" gradientUnits="userSpaceOnUse">
<stop stop-color="#E07A3F"/>
<stop offset="1" stop-color="#EB9154"/>
</linearGradient>
<linearGradient id="paint3_linear" x1="34.8047" y1="14.268" x2="34.8047" y2="55.3412" gradientUnits="userSpaceOnUse">
<stop stop-color="#1D0024"/>
<stop offset="1" stop-color="#100014"/>
</linearGradient>
</defs>
</svg>
