<svg xmlns="http://www.w3.org/2000/svg" xmlns:xlink="http://www.w3.org/1999/xlink" viewBox="-2129.644 581 45.709 42.966">
  <defs>
    <style>
      .cls-1 {
        fill: #fdca03;
      }

      .cls-2 {
        clip-path: url(#clip-path);
      }

      .cls-3 {
        fill: #006c92;
      }

      .cls-4 {
        fill: #fff;
      }

      .cls-5 {
        fill: red;
        stroke: red;
        stroke-width: 0.094px;
      }
    </style>
    <clipPath id="clip-path">
      <path id="Path_2316" data-name="Path 2316" class="cls-1" d="M1.35,0H44.358a1.35,1.35,0,0,1,1.35,1.35V41.616a1.35,1.35,0,0,1-1.35,1.35H1.35A1.35,1.35,0,0,1,0,41.616V1.35A1.35,1.35,0,0,1,1.35,0Z" transform="translate(222 281)"/>
    </clipPath>
  </defs>
  <g id="Mask_Group_5" data-name="Mask Group 5" class="cls-2" transform="translate(-2351.644 300)">
    <g id="MTN_Logo" transform="translate(222.32 281)">
      <g id="g2396" transform="translate(0 0)">
        <path id="path2408" class="cls-1" d="M51.648,113.1V91.619H96.717v42.966H51.648Z" transform="translate(-51.648 -91.619)"/>
        <path id="path2398" class="cls-3" d="M66.542,127.4c-6.137-1-10.634-2.788-12.749-5.083-1.11-1.2-1.252-1.524-1.252-2.813,0-2.055,1.342-3.562,4.6-5.169,7.86-3.874,22.589-4.384,32.009-1.108,5.094,1.771,7.832,4.525,7.151,7.191-.32,1.253-1.95,2.833-4.075,3.949a26.316,26.316,0,0,1-7.686,2.625C80.934,127.815,70.566,128.05,66.542,127.4Z" transform="translate(-51.938 -97.936)"/>
      </g>
      <path id="flowRoot2436" class="cls-4" d="M15.388,29.469h3.4l-.417,5.086L21.4,29.469h3.387L21.95,37.829H19.84l2.166-6.375-3.8,6.375h-1.91l.536-6.375-2.166,6.375H12.547Zm19.5,0H37.3l1.576,4.624,1.571-4.624h2.435l-2.841,8.359H37.608l-1.571-4.59-1.56,4.59H32.048Z" transform="translate(-5.18 -12.166)"/>
      <path id="flowRoot2455" class="cls-1" d="M31.906,29.469h7.856l-.7,2.065H36.425l-1.672,4.9H32.169l1.672-4.9H31.2Z" transform="translate(-11.242 -12.166)"/>
      <path id="rect2464" class="cls-5" d="M32.357,40.242h2.523L34.535,41.3H32.012Z" transform="translate(-11.504 -15.665)"/>
    </g>
  </g>
</svg>
