<svg width="40" height="40" viewBox="0 0 40 40" fill="none" xmlns="http://www.w3.org/2000/svg">
<rect width="40" height="40" rx="20" fill="#E7EAF0"/>
<path d="M25.6673 26.3333C25.6673 29.2799 22.9473 29.6667 20.0007 29.6667C17.054 29.6667 14.334 29.2799 14.334 26.3333C14.334 23.86 16.3874 20.9067 18.6673 20H21.6673C23.874 20.9733 25.6673 23.9134 25.6673 26.3333Z" fill="#C49A6C"/>
<path d="M23.1618 18.076C23.3182 17.875 23.3464 17.6025 23.2346 17.3739C23.1227 17.1452 22.8905 17 22.6359 17H17.8169C17.5541 16.9994 17.3153 17.1532 17.2072 17.3927C17.0993 17.6325 17.1423 17.9133 17.3169 18.1097L18.6656 20H21.6656L23.1618 18.076Z" fill="#A97C50"/>
<path d="M20.4507 29.66C20.3006 29.6667 20.1507 29.6667 20.0006 29.6667C17.054 29.6667 14.334 29.2799 14.334 26.3333C14.334 23.86 16.3874 20.9067 18.6673 20H19.6673C17.3874 20.9067 15.334 23.86 15.334 26.3333C15.334 29.0967 17.724 29.6066 20.4507 29.66Z" fill="#A97C50"/>
<path d="M19.6678 20H18.6678L17.3211 18.11C17.1466 17.9141 17.1033 17.634 17.2104 17.3944C17.3177 17.1548 17.5553 17.0005 17.8179 17H18.8179C18.5553 17.0005 18.3177 17.1548 18.2104 17.3944C18.1033 17.634 18.1466 17.9141 18.3211 18.11L19.6678 20Z" fill="#8B5E3C"/>
<path d="M23 25C23 26.6569 21.6569 28 20 28C18.3431 28 17 26.6569 17 25C17 23.3431 18.3431 22 20 22C21.6569 22 23 23.3431 23 25Z" fill="#C9874A"/>
<path d="M21.3851 24.9981H20.9763V24.5723H21.3851C21.4161 24.5708 21.4453 24.5575 21.4667 24.535C21.4881 24.5125 21.5 24.4827 21.5 24.4517C21.5 24.4207 21.4881 24.3908 21.4667 24.3684C21.4453 24.3459 21.4161 24.3326 21.3851 24.331H20.9763V23.7416C20.9818 23.6755 20.9654 23.6095 20.9296 23.5537C20.9151 23.5357 20.8965 23.5214 20.8753 23.5122C20.8541 23.5029 20.831 23.4988 20.808 23.5003C20.7856 23.499 20.7632 23.5032 20.7428 23.5125C20.7223 23.5218 20.7045 23.5359 20.6907 23.5537C20.6553 23.6097 20.6392 23.6758 20.6446 23.7419V24.332H19.8762L19.5497 23.7965C19.5213 23.7487 19.4955 23.704 19.4699 23.661C19.4508 23.6277 19.4285 23.5963 19.4034 23.5673C19.385 23.5468 19.3629 23.53 19.3382 23.5179C19.3103 23.5053 19.2798 23.4993 19.2491 23.5003C19.2039 23.5003 19.1599 23.5147 19.1235 23.5413C19.0863 23.5665 19.0576 23.6025 19.0413 23.6444C19.0243 23.703 19.0169 23.7639 19.0193 23.8249V24.3319H18.6149C18.5839 24.3334 18.5547 24.3468 18.5333 24.3692C18.5119 24.3917 18.5 24.4215 18.5 24.4525C18.5 24.4836 18.5119 24.5134 18.5333 24.5359C18.5547 24.5583 18.5839 24.5717 18.6149 24.5732H19.0193V24.999H18.6149C18.5839 25.0005 18.5547 25.0139 18.5333 25.0363C18.5119 25.0588 18.5 25.0886 18.5 25.1196C18.5 25.1507 18.5119 25.1805 18.5333 25.203C18.5547 25.2254 18.5839 25.2388 18.6149 25.2403H19.0193V25.9132C19.0142 25.9788 19.0312 26.0443 19.0676 26.0991C19.0819 26.1175 19.1005 26.1321 19.1217 26.1418C19.1429 26.1514 19.1661 26.1558 19.1893 26.1546C19.2125 26.1555 19.2355 26.1509 19.2565 26.1413C19.2776 26.1316 19.296 26.1171 19.3104 26.099C19.3476 26.0445 19.3649 25.9789 19.3595 25.9132V25.2389H20.055L20.4313 25.8634C20.4574 25.9047 20.4845 25.9464 20.5113 25.9873C20.534 26.0221 20.5604 26.0543 20.5901 26.0834C20.613 26.1063 20.6404 26.1244 20.6704 26.1366C20.7025 26.1484 20.7365 26.1542 20.7706 26.1536C20.8724 26.1536 20.9766 26.1198 20.9766 25.8698V25.2389H21.3851C21.4161 25.2374 21.4453 25.224 21.4667 25.2015C21.4881 25.1791 21.5 25.1492 21.5 25.1182C21.5 25.0872 21.4881 25.0574 21.4667 25.0349C21.4453 25.0124 21.4161 24.9991 21.3851 24.9976V24.9981ZM20.6447 24.5723V24.9981H20.2828L20.0233 24.5723H20.6447ZM19.3595 24.0842L19.5088 24.332H19.3595V24.0842ZM19.3595 24.9981V24.5723H19.6535L19.9089 24.9981H19.3595ZM20.6445 25.5917L20.4293 25.2389H20.6445V25.5917Z" fill="black"/>
<path d="M22 13.3333H21V10.3333H19V13.3333H18L20 15.6666L22 13.3333Z" fill="#5EAC24"/>
<path d="M19.9993 21.6667C18.1584 21.6667 16.666 23.1591 16.666 25.0001C16.666 26.8411 18.1584 28.3334 19.9993 28.3334C21.8403 28.3334 23.3327 26.8411 23.3327 25.0001C23.3307 23.1599 21.8395 21.6687 19.9993 21.6667ZM19.9993 27.6667C18.5265 27.6667 17.3327 26.4729 17.3327 25.0001C17.3327 23.5273 18.5265 22.3334 19.9993 22.3334C21.4722 22.3334 22.666 23.5273 22.666 25.0001C22.6644 26.4721 21.4714 27.6651 19.9993 27.6667Z" fill="black"/>
<path d="M22.179 19.8844L23.4259 18.2807C23.6605 17.9792 23.7028 17.5707 23.5352 17.2276C23.3674 16.8845 23.0189 16.6669 22.637 16.6667H17.818C17.4242 16.6667 17.0672 16.8979 16.9059 17.2571C16.7446 17.6163 16.8091 18.0367 17.0706 18.3311L18.1177 19.8844C15.8794 21.0194 14 23.9094 14 26.3334C14 30.0001 18.0524 30.0001 20 30.0001C21.9476 30.0001 26 30.0001 26 26.3334C26 23.884 24.2856 21.0398 22.179 19.8844ZM17.5124 17.53C17.5654 17.4096 17.6851 17.3323 17.8167 17.3334H22.637C22.7643 17.3334 22.8805 17.406 22.9364 17.5204C22.9924 17.6347 22.9782 17.7709 22.9001 17.8713L21.5037 19.6667H18.8164L17.5687 17.8881C17.4803 17.7904 17.4588 17.6497 17.5137 17.53H17.5124ZM20 29.3334C16.8 29.3334 14.6667 28.8235 14.6667 26.3334C14.6667 24.0595 16.5967 21.2195 18.7334 20.3334H21.5967C23.5936 21.2568 25.3333 24.0395 25.3333 26.3334C25.3333 28.8235 23.2 29.3334 20 29.3334Z" fill="black"/>
<path d="M20 16.179L17.2754 13H18.6667V10H21.3333V13H22.7246L20 16.179ZM18.7246 13.6667L20 15.1543L21.2754 13.6667H20.6667V10.6667H19.3333V13.6667H18.7246Z" fill="black"/>
</svg>
