<svg width="76" height="76" viewBox="0 0 76 76" fill="none" xmlns="http://www.w3.org/2000/svg">
<g filter="url(#filter0_d)">
<rect x="3" y="2" width="70" height="70" rx="5" fill="#87919A"/>
<rect x="3.5" y="2.5" width="69" height="69" rx="4.5" stroke="#EAEDF3"/>
</g>
<g clip-path="url(#clip0)">
<path fill-rule="evenodd" clip-rule="evenodd" d="M22.5156 45.6986L25.3147 37.9474C25.8745 36.5695 26.7788 36.5264 26.8649 36.5264C27.4247 36.5264 28.2429 36.225 29.3195 35.2345L29.5348 35.0192L29.6209 34.9331C31.085 33.6843 32.5491 33.2537 33.6257 33.2537C35.3482 33.2537 36.2955 33.8996 36.4678 35.4068C37.7166 33.9427 39.5252 33.2537 41.0324 33.2537C44.0037 33.2537 44.1328 35.3206 43.1424 38.0336L40.3434 45.6986H37.1998L39.8266 38.4642C40.2142 37.3015 40.8171 35.7082 39.0084 35.7082C36.8984 35.7082 35.7357 38.2058 35.1759 39.7991L33.0228 45.6986H29.8362L32.5061 38.4642C32.8936 37.3015 33.4965 35.7082 31.6448 35.7082C29.5778 35.7082 28.4151 38.2058 27.8123 39.7991L25.6592 45.6986H22.5156ZM41.4199 45.6986L45.8553 33.5551H48.9989L44.5635 45.6986H41.4199Z" fill="white"/>
<path d="M25.4019 33.469L26.2632 33.6843L26.3923 33.7273L27.2967 33.9857C25.5742 36.0096 22.9474 35.579 22.9474 35.579H22.5167C21.6555 35.579 20.4928 35.8805 20.0191 36.9139C19.1579 38.8517 25.2297 37.646 23.2488 41.9953C21.9569 44.8374 18.9426 45.957 16.3589 45.957C15.1531 45.957 14.0335 45.7417 13 45.4403L13.9474 43.6747H17.0909C17.9091 43.6747 19.3301 43.3733 19.8469 42.1675C20.9234 39.7991 14.7225 41.4355 16.7033 37.0431C17.866 34.4163 20.6651 33.2537 23.1627 33.2537C24.11 33.2537 24.799 33.3398 25.4019 33.469Z" fill="white"/>
<path fill-rule="evenodd" clip-rule="evenodd" d="M55.2865 28L49.7314 43.244C48.7841 45.4402 46.3295 45.6555 45.8558 45.6986H45.6836L52.0999 28H55.2865ZM55.2434 38.4211H60.6262C61.0999 36.9139 60.8415 35.5789 59.0759 35.5789C57.3104 35.5789 55.9755 36.7847 55.2434 38.4211ZM56.7936 43.6746H60.8415L60.3247 45.0096C58.9468 45.6555 57.5257 45.9569 55.8032 45.9569C51.7984 45.9569 50.3343 43.6746 51.7554 39.6699C53.0472 36.1818 55.9755 33.2536 59.7219 33.2536C64.2434 33.2536 64.3726 36.3541 62.8654 40.6172H54.4683C53.8654 42.555 54.8558 43.6746 56.7936 43.6746Z" fill="white"/>
<path fill-rule="evenodd" clip-rule="evenodd" d="M46.1602 32.6508L46.9353 30.5838C47.0645 30.1963 47.452 29.6365 49.0884 29.6365H50.4233L50.3372 29.8948C49.2606 32.6508 46.3324 32.6508 46.3324 32.6508H46.1602Z" fill="#B0D235"/>
</g>
<defs>
<filter id="filter0_d" x="0" y="0" width="76" height="76" filterUnits="userSpaceOnUse" color-interpolation-filters="sRGB">
<feFlood flood-opacity="0" result="BackgroundImageFix"/>
<feColorMatrix in="SourceAlpha" type="matrix" values="0 0 0 0 0 0 0 0 0 0 0 0 0 0 0 0 0 0 127 0"/>
<feOffset dy="1"/>
<feGaussianBlur stdDeviation="1.5"/>
<feColorMatrix type="matrix" values="0 0 0 0 0 0 0 0 0 0 0 0 0 0 0 0 0 0 0.04 0"/>
<feBlend mode="normal" in2="BackgroundImageFix" result="effect1_dropShadow"/>
<feBlend mode="normal" in="SourceGraphic" in2="effect1_dropShadow" result="shape"/>
</filter>
<clipPath id="clip0">
<rect width="50.7703" height="18" fill="white" transform="translate(13 28)"/>
</clipPath>
</defs>
</svg>
